<svg width="1220" height="1280" viewBox="0 0 1220 1280" fill="none" xmlns="http://www.w3.org/2000/svg">
<path d="M270 185C244 185 224 197 216 215C204 212 188 218 182 230C176 242 180 254 194 258H394C410 258 422 248 422 234C422 222 412 212 400 210C396 196 380 188 364 188C332 188 304 185 270 185Z" fill="#DCDCDC"/>
<path d="M915 160C893 160 877 170 871 184C861 182 849 187 845 196C841 206 843 216 855 218H1013C1027 218 1037 210 1037 198C1037 188 1027 180 1015 178C1013 166 999 160 985 160C963 160 939 160 915 160Z" fill="#DCDCDC"/>
<path d="M180 378C170 318 245 256 365 232C495 206 645 202 790 222C905 238 1018 272 1080 318C1112 342 1116 376 1098 406C1080 432 1042 450 992 460C928 472 858 486 790 500C722 514 656 528 588 532C522 536 460 530 410 518C360 506 320 492 270 470C218 448 188 418 188 388C188 384 188 381 180 378Z" fill="url(#paint0_radial_173_97)"/>
<mask id="mask0_173_97" style="mask-type:luminance" maskUnits="userSpaceOnUse" x="179" y="209" width="930" height="325">
<path d="M180 378C170 318 245 256 365 232C495 206 645 202 790 222C905 238 1018 272 1080 318C1112 342 1116 376 1098 406C1080 432 1042 450 992 460C928 472 858 486 790 500C722 514 656 528 588 532C522 536 460 530 410 518C360 506 320 492 270 470C218 448 188 418 188 388C188 384 188 381 180 378Z" fill="white"/>
</mask>
<g mask="url(#mask0_173_97)">
<path d="M555 445C775.914 445 955 395.751 955 335C955 274.249 775.914 225 555 225C334.086 225 155 274.249 155 335C155 395.751 334.086 445 555 445Z" fill="url(#paint1_radial_173_97)"/>
<path opacity="0.18" d="M780 570C967.777 570 1120 543.137 1120 510C1120 476.863 967.777 450 780 450C592.223 450 440 476.863 440 510C440 543.137 592.223 570 780 570Z" fill="#7E9265"/>
<g opacity="0.06">
<path d="M610 356C847.482 356 1040 353.314 1040 350C1040 346.686 847.482 344 610 344C372.518 344 180 346.686 180 350C180 353.314 372.518 356 610 356Z" fill="#4F6238"/>
<path d="M610 396C847.482 396 1040 393.314 1040 390C1040 386.686 847.482 384 610 384C372.518 384 180 386.686 180 390C180 393.314 372.518 396 610 396Z" fill="#4F6238"/>
<path d="M610 436C847.482 436 1040 433.314 1040 430C1040 426.686 847.482 424 610 424C372.518 424 180 426.686 180 430C180 433.314 372.518 436 610 436Z" fill="#4F6238"/>
<path d="M610 476C847.482 476 1040 473.314 1040 470C1040 466.686 847.482 464 610 464C372.518 464 180 466.686 180 470C180 473.314 372.518 476 610 476Z" fill="#4F6238"/>
</g>
<path opacity="0.55" d="M250 396C310 308 470 256 640 256C800 258 930 294 1030 344C1062 360 1086 378 1100 394" stroke="#7E9265" stroke-width="2.5" stroke-linecap="round"/>
<path opacity="0.35" d="M180 378C170 318 245 256 365 232C495 206 645 202 790 222C905 238 1018 272 1080 318C1112 342 1116 376 1098 406C1080 432 1042 450 992 460C928 472 858 486 790 500C722 514 656 528 588 532C522 536 460 530 410 518C360 506 320 492 270 470C218 448 188 418 188 388C188 384 188 381 180 378Z" stroke="#7E9265" stroke-width="10"/>
</g>
<path opacity="0.32" d="M230 470C320 500 430 520 550 530C660 538 770 536 870 524C960 512 1040 490 1090 460C1050 498 980 520 880 532C780 544 670 544 580 538C480 530 380 518 300 494C272 486 248 478 230 470Z" fill="#788A5D"/>
<path d="M110 720H465" stroke="#C97A2A" stroke-width="11" stroke-linecap="round"/>
<path d="M455 698L505 720L455 742L470 720L455 698Z" fill="#C97A2A"/>
<path opacity="0.04" d="M610 1230C853.005 1230 1050 1220.15 1050 1208C1050 1195.85 853.005 1186 610 1186C366.995 1186 170 1195.85 170 1208C170 1220.15 366.995 1230 610 1230Z" fill="black"/>
<path d="M610 1234C847.482 1234 1040 1218.78 1040 1200C1040 1181.22 847.482 1166 610 1166C372.518 1166 180 1181.22 180 1200C180 1218.78 372.518 1234 610 1234Z" fill="url(#paint2_radial_173_97)"/>
<path opacity="0.55" d="M600 1214C776.731 1214 920 1205.94 920 1196C920 1186.06 776.731 1178 600 1178C423.269 1178 280 1186.06 280 1196C280 1205.94 423.269 1214 600 1214Z" fill="#ECEFE0"/>
<g opacity="0.7">
<path d="M520 1212C521.105 1212 522 1211.1 522 1210C522 1208.9 521.105 1208 520 1208C518.895 1208 518 1208.9 518 1210C518 1211.1 518.895 1212 520 1212Z" fill="#B8BFA6"/>
<path d="M560 1217.6C560.884 1217.6 561.6 1216.88 561.6 1216C561.6 1215.12 560.884 1214.4 560 1214.4C559.117 1214.4 558.4 1215.12 558.4 1216C558.4 1216.88 559.117 1217.6 560 1217.6Z" fill="#B8BFA6"/>
<path d="M680 1216C681.105 1216 682 1215.1 682 1214C682 1212.9 681.105 1212 680 1212C678.895 1212 678 1212.9 678 1214C678 1215.1 678.895 1216 680 1216Z" fill="#B8BFA6"/>
<path d="M720 1209.6C720.884 1209.6 721.6 1208.88 721.6 1208C721.6 1207.12 720.884 1206.4 720 1206.4C719.117 1206.4 718.4 1207.12 718.4 1208C718.4 1208.88 719.117 1209.6 720 1209.6Z" fill="#B8BFA6"/>
<path d="M800 1218C801.105 1218 802 1217.1 802 1216C802 1214.9 801.105 1214 800 1214C798.895 1214 798 1214.9 798 1216C798 1217.1 798.895 1218 800 1218Z" fill="#B8BFA6"/>
</g>
<path d="M454 1198C454 1188 454 1180 450 1170" stroke="#7E9869" stroke-width="4" stroke-linecap="round"/>
<path d="M464 1198C466 1186 470 1178 472 1170" stroke="#7E9869" stroke-width="4" stroke-linecap="round"/>
<path d="M474 1198C478 1188 484 1182 490 1176" stroke="#7E9869" stroke-width="4" stroke-linecap="round"/>
<path d="M448 1198C446 1190 444 1184 440 1180" stroke="#9BB286" stroke-width="3" stroke-linecap="round"/>
<path d="M460 1198C460 1190 460 1184 462 1180" stroke="#9BB286" stroke-width="3" stroke-linecap="round"/>
<path d="M482 1198C484 1190 486 1186 494 1184" stroke="#9BB286" stroke-width="3" stroke-linecap="round"/>
<path d="M736 1198C734 1188 732 1180 728 1172" stroke="#7E9869" stroke-width="4" stroke-linecap="round"/>
<path d="M748 1198C750 1186 752 1178 752 1170" stroke="#7E9869" stroke-width="4" stroke-linecap="round"/>
<path d="M758 1198C760 1188 766 1180 770 1174" stroke="#7E9869" stroke-width="4" stroke-linecap="round"/>
<path d="M742 1198C740 1192 738 1186 736 1182" stroke="#9BB286" stroke-width="3" stroke-linecap="round"/>
<path d="M754 1198C754 1190 754 1184 756 1180" stroke="#9BB286" stroke-width="3" stroke-linecap="round"/>
<path d="M766 1198C768 1192 770 1186 774 1184" stroke="#9BB286" stroke-width="3" stroke-linecap="round"/>
<defs>
<radialGradient id="paint0_radial_173_97" cx="0" cy="0" r="1" gradientUnits="userSpaceOnUse" gradientTransform="translate(643.888 345.382) scale(632.098 220.24)">
<stop stop-color="#C4D2A7"/>
<stop offset="0.55" stop-color="#ABBB86"/>
<stop offset="1" stop-color="#8A9D6A"/>
</radialGradient>
<radialGradient id="paint1_radial_173_97" cx="0" cy="0" r="1" gradientUnits="userSpaceOnUse" gradientTransform="translate(555 335) scale(400 110)">
<stop stop-color="#DDE6C0" stop-opacity="0.9"/>
<stop offset="1" stop-color="#DDE6C0" stop-opacity="0"/>
</radialGradient>
<radialGradient id="paint2_radial_173_97" cx="0" cy="0" r="1" gradientUnits="userSpaceOnUse" gradientTransform="translate(610 1200) scale(516 40.8)">
<stop stop-color="#E2E6D6"/>
<stop offset="1" stop-color="#CED4BE"/>
</radialGradient>
</defs>
</svg>
