<svg width="558" height="558" viewBox="0 0 558 558" fill="none" xmlns="http://www.w3.org/2000/svg">
<rect x="0.5" y="0.5" width="557" height="557" stroke="black"/>
<path d="M139.5 430.52C181.264 456.852 229.628 470.826 279 470.826M279 470.826C328.372 470.826 376.736 456.852 418.5 430.52M279 470.826V540.562M279 401.062C329.872 401.062 378.66 380.854 414.632 344.882C450.604 308.91 470.812 260.122 470.812 209.25C470.812 158.378 450.604 109.59 414.632 73.6181C378.66 37.6463 329.872 17.4375 279 17.4375C228.128 17.4375 179.34 37.6463 143.368 73.6181C107.396 109.59 87.1875 158.378 87.1875 209.25C87.1875 260.122 107.396 308.91 143.368 344.882C179.34 380.854 228.128 401.062 279 401.062Z" stroke="black" stroke-width="32" stroke-linecap="round" stroke-linejoin="round"/>
<path d="M313.875 270.281C311.563 270.281 309.345 269.363 307.71 267.728C306.075 266.093 305.156 263.875 305.156 261.562C305.156 259.25 306.075 257.032 307.71 255.397C309.345 253.762 311.563 252.844 313.875 252.844M313.875 270.281C316.187 270.281 318.405 269.363 320.04 267.728C321.675 266.093 322.594 263.875 322.594 261.562C322.594 259.25 321.675 257.032 320.04 255.397C318.405 253.762 316.187 252.844 313.875 252.844M279 340.031C276.688 340.031 274.47 339.113 272.835 337.478C271.2 335.843 270.281 333.625 270.281 331.312C270.281 329 271.2 326.782 272.835 325.147C274.47 323.512 276.688 322.594 279 322.594M279 340.031C281.312 340.031 283.53 339.113 285.165 337.478C286.8 335.843 287.719 333.625 287.719 331.312C287.719 329 286.8 326.782 285.165 325.147C283.53 323.512 281.312 322.594 279 322.594M366.188 322.594C363.875 322.594 361.657 321.675 360.022 320.04C358.387 318.405 357.469 316.187 357.469 313.875C357.469 311.563 358.387 309.345 360.022 307.71C361.657 306.075 363.875 305.156 366.188 305.156M366.188 322.594C368.5 322.594 370.718 321.675 372.353 320.04C373.988 318.405 374.906 316.187 374.906 313.875C374.906 311.563 373.988 309.345 372.353 307.71C370.718 306.075 368.5 305.156 366.188 305.156M401.062 252.844C398.75 252.844 396.532 251.925 394.897 250.29C393.262 248.655 392.344 246.437 392.344 244.125C392.344 241.813 393.262 239.595 394.897 237.96C396.532 236.325 398.75 235.406 401.062 235.406M401.062 252.844C403.375 252.844 405.593 251.925 407.228 250.29C408.863 248.655 409.781 246.437 409.781 244.125C409.781 241.813 408.863 239.595 407.228 237.96C405.593 236.325 403.375 235.406 401.062 235.406" stroke="black" stroke-width="32"/>
</svg>
