<svg xmlns="http://www.w3.org/2000/svg" viewBox="-2.000 -74.459 88.570 80.459">
  <path d="M28.125-53.2227L56.4941-53.2227C58.0078-53.2227 59.1309-54.3945 59.1309-55.9082C59.1309-57.373 58.0078-58.4961 56.4941-58.4961L28.125-58.4961C26.5625-58.4961 25.4395-57.373 25.4395-55.9082C25.4395-54.3945 26.5625-53.2227 28.125-53.2227ZM28.125-39.8926L56.4941-39.8926C58.0078-39.8926 59.1309-41.1133 59.1309-42.627C59.1309-44.043 58.0078-45.2148 56.4941-45.2148L28.125-45.2148C26.5625-45.2148 25.4395-44.043 25.4395-42.627C25.4395-41.1133 26.5625-39.8926 28.125-39.8926ZM28.125-26.6602L56.4941-26.6602C58.0078-26.6602 59.1309-27.832 59.1309-29.3457C59.1309-30.8105 58.0078-31.9336 56.4941-31.9336L28.125-31.9336C26.5625-31.9336 25.4395-30.8105 25.4395-29.3457C25.4395-27.832 26.5625-26.6602 28.125-26.6602ZM28.125-13.3789L56.4941-13.3789C58.0078-13.3789 59.1309-14.502 59.1309-15.9668C59.1309-17.4805 58.0078-18.6523 56.4941-18.6523L28.125-18.6523C26.5625-18.6523 25.4395-17.4805 25.4395-15.9668C25.4395-14.502 26.5625-13.3789 28.125-13.3789ZM9.76562-6.54297C9.76562 1.80664 13.8184 5.9082 22.0215 5.9082L62.5 5.9082C70.7031 5.9082 74.8047 1.80664 74.8047-6.54297L74.8047-63.9648C74.8047-72.2656 70.7031-76.416 62.5-76.416L22.0215-76.416C13.8184-76.416 9.76562-72.2656 9.76562-63.9648ZM16.7969-6.64062L16.7969-63.8672C16.7969-67.3828 18.7012-69.3848 22.4121-69.3848L62.1582-69.3848C65.8203-69.3848 67.7246-67.3828 67.7246-63.8672L67.7246-6.64062C67.7246-3.125 65.8203-1.12305 62.1582-1.12305L22.4121-1.12305C18.7012-1.12305 16.7969-3.125 16.7969-6.64062Z" fill="currentColor"/>
  <path d="M99.9023 25.1953L100-42.0898C100-50.7324 88.6719-53.9062 82.373-46.4355L34.668 10.3027L34.7168 19.4336C34.7656 25.3906 38.4766 25.1953 44.3848 25.1953Z" fill="currentColor"/>
  <path d="M50.8789 15.9668L87.7441-27.9297L79.834-34.5703L42.9688 9.32617L40.1855 18.4082C39.8926 19.4336 41.0156 20.5078 42.041 20.0195ZM90.9668-31.6406L94.6777-36.0352C96.582-38.2812 96.5332-40.5273 94.4824-42.1875L92.8223-43.6035C90.8203-45.3125 88.623-44.9219 86.7188-42.7246L82.959-38.3301Z" fill="currentColor"/>
</svg>
