<?xml version="1.0" encoding="UTF-8"?>
<!--Generator: Apple Native CoreSVG 341-->
<!DOCTYPE svg
PUBLIC "-//W3C//DTD SVG 1.1//EN"
       "http://www.w3.org/Graphics/SVG/1.1/DTD/svg11.dtd">
<svg version="1.1" xmlns="http://www.w3.org/2000/svg" xmlns:xlink="http://www.w3.org/1999/xlink" viewBox="0 0 3300 2200">
 <!--glyph: "1008C9", point size: 100.0, font version: "21.1d1e1", template writer version: "138.0.0"-->
 <style>.defaults {-sfsymbols-draw-reverses-motion-groups:false}

.monochrome-0 {-sfsymbols-motion-group:4;-sfsymbols-layer-tags:chart.bar.xaxis}
.monochrome-1 {-sfsymbols-variable-threshold:0.76;-sfsymbols-variable-draw:0 0.25;-sfsymbols-motion-group:3;-sfsymbols-layer-tags:chart.bar.xaxis}
.monochrome-2 {-sfsymbols-variable-threshold:0.51;-sfsymbols-variable-draw:0.25 0.25;-sfsymbols-motion-group:2;-sfsymbols-layer-tags:chart.bar.xaxis}
.monochrome-3 {-sfsymbols-variable-threshold:0.26;-sfsymbols-variable-draw:0.5 0.25;-sfsymbols-motion-group:1;-sfsymbols-layer-tags:chart.bar.xaxis}
.monochrome-4 {-sfsymbols-variable-threshold:0.0;-sfsymbols-variable-draw:0.75 0.25;-sfsymbols-motion-group:0;-sfsymbols-layer-tags:chart.bar.xaxis}

.multicolor-0:tintColor {-sfsymbols-motion-group:4;-sfsymbols-layer-tags:chart.bar.xaxis}
.multicolor-1:tintColor {-sfsymbols-variable-threshold:0.76;-sfsymbols-variable-draw:0 0.25;-sfsymbols-motion-group:3;-sfsymbols-layer-tags:chart.bar.xaxis}
.multicolor-2:tintColor {-sfsymbols-variable-threshold:0.51;-sfsymbols-variable-draw:0.25 0.25;-sfsymbols-motion-group:2;-sfsymbols-layer-tags:chart.bar.xaxis}
.multicolor-3:tintColor {-sfsymbols-variable-threshold:0.26;-sfsymbols-variable-draw:0.5 0.25;-sfsymbols-motion-group:1;-sfsymbols-layer-tags:chart.bar.xaxis}
.multicolor-4:tintColor {-sfsymbols-variable-threshold:0.0;-sfsymbols-variable-draw:0.75 0.25;-sfsymbols-motion-group:0;-sfsymbols-layer-tags:chart.bar.xaxis}

.hierarchical-0:secondary {-sfsymbols-motion-group:4;-sfsymbols-layer-tags:chart.bar.xaxis}
.hierarchical-1:primary {-sfsymbols-variable-threshold:0.76;-sfsymbols-variable-draw:0 0.25;-sfsymbols-motion-group:3;-sfsymbols-layer-tags:chart.bar.xaxis}
.hierarchical-2:primary {-sfsymbols-variable-threshold:0.51;-sfsymbols-variable-draw:0.25 0.25;-sfsymbols-motion-group:2;-sfsymbols-layer-tags:chart.bar.xaxis}
.hierarchical-3:primary {-sfsymbols-variable-threshold:0.26;-sfsymbols-variable-draw:0.5 0.25;-sfsymbols-motion-group:1;-sfsymbols-layer-tags:chart.bar.xaxis}
.hierarchical-4:primary {-sfsymbols-variable-threshold:0.0;-sfsymbols-variable-draw:0.75 0.25;-sfsymbols-motion-group:0;-sfsymbols-layer-tags:chart.bar.xaxis}

.SFSymbolsPreviewWireframe {fill:none;opacity:1.0;stroke:black;stroke-width:0.5}
</style>
 <g id="Notes">
  <rect height="2200" id="artboard" style="fill:white;opacity:1" width="3300" x="0" y="0"/>
  <line style="fill:none;stroke:black;opacity:1;stroke-width:0.5;" x1="263" x2="3036" y1="292" y2="292"/>
  <text style="stroke:none;fill:black;font-family:sans-serif;font-size:13;font-weight:bold;" transform="matrix(1 0 0 1 263 322)">Weight/Scale Variations</text>
  <text style="stroke:none;fill:black;font-family:sans-serif;font-size:13;text-anchor:middle;" transform="matrix(1 0 0 1 559.711 322)">Ultralight</text>
  <text style="stroke:none;fill:black;font-family:sans-serif;font-size:13;text-anchor:middle;" transform="matrix(1 0 0 1 856.422 322)">Thin</text>
  <text style="stroke:none;fill:black;font-family:sans-serif;font-size:13;text-anchor:middle;" transform="matrix(1 0 0 1 1153.13 322)">Light</text>
  <text style="stroke:none;fill:black;font-family:sans-serif;font-size:13;text-anchor:middle;" transform="matrix(1 0 0 1 1449.84 322)">Regular</text>
  <text style="stroke:none;fill:black;font-family:sans-serif;font-size:13;text-anchor:middle;" transform="matrix(1 0 0 1 1746.56 322)">Medium</text>
  <text style="stroke:none;fill:black;font-family:sans-serif;font-size:13;text-anchor:middle;" transform="matrix(1 0 0 1 2043.27 322)">Semibold</text>
  <text style="stroke:none;fill:black;font-family:sans-serif;font-size:13;text-anchor:middle;" transform="matrix(1 0 0 1 2339.98 322)">Bold</text>
  <text style="stroke:none;fill:black;font-family:sans-serif;font-size:13;text-anchor:middle;" transform="matrix(1 0 0 1 2636.69 322)">Heavy</text>
  <text style="stroke:none;fill:black;font-family:sans-serif;font-size:13;text-anchor:middle;" transform="matrix(1 0 0 1 2933.4 322)">Black</text>
  <line style="fill:none;stroke:black;opacity:1;stroke-width:0.5;" x1="263" x2="3036" y1="1903" y2="1903"/>
  <g transform="matrix(0.2 0 0 0.2 263 1933)">
   <path d="m46.2402 4.15039c21.7773 0 39.4531-17.627 39.4531-39.4043s-17.6758-39.4043-39.4531-39.4043c-21.7285 0-39.4043 17.627-39.4043 39.4043s17.6758 39.4043 39.4043 39.4043Zm0-7.42188c-17.6758 0-31.9336-14.3066-31.9336-31.9824s14.2578-31.9824 31.9336-31.9824 31.9824 14.3066 31.9824 31.9824-14.3066 31.9824-31.9824 31.9824Zm3.61328-17.7734v-28.4668c0-2.24609-1.46484-3.75977-3.71094-3.75977-2.14844 0-3.61328 1.51367-3.61328 3.75977v28.4668c0 2.19727 1.46484 3.71094 3.61328 3.71094 2.24609 0 3.71094-1.51367 3.71094-3.71094Zm-17.8223-10.5957h28.418c2.19727 0 3.71094-1.46484 3.71094-3.61328 0-2.19727-1.51367-3.71094-3.71094-3.71094h-28.418c-2.24609 0-3.75977 1.51367-3.75977 3.71094 0 2.14844 1.51367 3.61328 3.75977 3.61328Z"/>
  </g>
  <g transform="matrix(0.2 0 0 0.2 281.506 1933)">
   <path d="m58.5449 14.5508c27.4902 0 49.8047-22.3145 49.8047-49.8047s-22.3145-49.8047-49.8047-49.8047-49.8047 22.3145-49.8047 49.8047 22.3145 49.8047 49.8047 49.8047Zm0-8.30078c-22.9492 0-41.5039-18.5547-41.5039-41.5039s18.5547-41.5039 41.5039-41.5039 41.5039 18.5547 41.5039 41.5039-18.5547 41.5039-41.5039 41.5039Zm4.05273-23.0957v-36.9141c0-2.49023-1.70898-4.19922-4.15039-4.19922-2.39258 0-4.05273 1.70898-4.05273 4.19922v36.9141c0 2.44141 1.66016 4.15039 4.05273 4.15039 2.44141 0 4.15039-1.66016 4.15039-4.15039Zm-22.5586-14.4043h36.9629c2.44141 0 4.15039-1.61133 4.15039-4.00391 0-2.44141-1.70898-4.15039-4.15039-4.15039h-36.9629c-2.49023 0-4.15039 1.70898-4.15039 4.15039 0 2.39258 1.66016 4.00391 4.15039 4.00391Z"/>
  </g>
  <g transform="matrix(0.2 0 0 0.2 304.924 1933)">
   <path d="m74.8535 28.3203c35.1074 0 63.623-28.4668 63.623-63.5742s-28.5156-63.623-63.623-63.623-63.5742 28.5156-63.5742 63.623 28.4668 63.5742 63.5742 63.5742Zm0-9.08203c-30.127 0-54.4922-24.3652-54.4922-54.4922s24.3652-54.4922 54.4922-54.4922 54.4922 24.3652 54.4922 54.4922-24.3652 54.4922-54.4922 54.4922Zm4.44336-30.3223v-48.4863c0-2.73438-1.85547-4.63867-4.54102-4.63867-2.58789 0-4.44336 1.9043-4.44336 4.63867v48.4863c0 2.68555 1.85547 4.58984 4.44336 4.58984 2.68555 0 4.54102-1.85547 4.54102-4.58984Zm-28.7109-19.7754h48.4863c2.68555 0 4.58984-1.80664 4.58984-4.39453 0-2.73438-1.85547-4.58984-4.58984-4.58984h-48.4863c-2.73438 0-4.58984 1.85547-4.58984 4.58984 0 2.58789 1.85547 4.39453 4.58984 4.39453Z"/>
  </g>
  <text style="stroke:none;fill:black;font-family:sans-serif;font-size:13;font-weight:bold;" transform="matrix(1 0 0 1 263 1953)">Design Variations</text>
  <text style="stroke:none;fill:black;font-family:sans-serif;font-size:13;" transform="matrix(1 0 0 1 263 1971)">Symbols are supported in up to nine weights and three scales.</text>
  <text style="stroke:none;fill:black;font-family:sans-serif;font-size:13;" transform="matrix(1 0 0 1 263 1989)">For optimal layout with text and other symbols, vertically align</text>
  <text style="stroke:none;fill:black;font-family:sans-serif;font-size:13;" transform="matrix(1 0 0 1 263 2007)">symbols with the adjacent text.</text>
  <line style="fill:none;stroke:#00AEEF;stroke-width:0.5;opacity:1.0;" x1="776" x2="776" y1="1919" y2="1933"/>
  <g transform="matrix(0.2 0 0 0.2 776 1933)">
   <path d="m16.5527 0.78125c2.58789 0 3.85742-0.976562 4.78516-3.71094l20.5566-57.5195h0.244141l20.6055 57.5195c0.927734 2.73438 2.19727 3.71094 4.73633 3.71094 2.58789 0 4.24805-1.5625 4.24805-4.00391 0-0.830078-0.146484-1.61133-0.537109-2.63672l-22.9004-60.9863c-1.12305-2.97852-3.125-4.49219-6.25-4.49219-3.02734 0-5.07812 1.46484-6.15234 4.44336l-22.9004 61.084c-0.390625 1.02539-0.537109 1.80664-0.537109 2.63672 0 2.44141 1.5625 3.95508 4.10156 3.95508Zm10.2051-20.9473h30.6641c2.00195 0 3.66211-1.66016 3.66211-3.66211 0-2.05078-1.66016-3.66211-3.66211-3.66211h-30.6641c-2.00195 0-3.66211 1.61133-3.66211 3.66211 0 2.00195 1.66016 3.66211 3.66211 3.66211Z"/>
  </g>
  <line style="fill:none;stroke:#00AEEF;stroke-width:0.5;opacity:1.0;" x1="792.836" x2="792.836" y1="1919" y2="1933"/>
  <text style="stroke:none;fill:black;font-family:sans-serif;font-size:13;font-weight:bold;" transform="matrix(1 0 0 1 776 1953)">Margins</text>
  <text style="stroke:none;fill:black;font-family:sans-serif;font-size:13;" transform="matrix(1 0 0 1 776 1971)">Leading and trailing margins on the left and right side of each symbol</text>
  <text style="stroke:none;fill:black;font-family:sans-serif;font-size:13;" transform="matrix(1 0 0 1 776 1989)">can be adjusted by modifying the x-location of the margin guidelines.</text>
  <text style="stroke:none;fill:black;font-family:sans-serif;font-size:13;" transform="matrix(1 0 0 1 776 2007)">Modifications are automatically applied proportionally to all</text>
  <text style="stroke:none;fill:black;font-family:sans-serif;font-size:13;" transform="matrix(1 0 0 1 776 2025)">scales and weights.</text>
  <g transform="matrix(0.2 0 0 0.2 1289 1933)">
   <path d="m14.209 13.1348 7.86133 7.86133c4.29688 4.39453 9.32617 4.10156 13.8672-1.02539l60.6934-68.2129-4.88281-4.88281-60.2539 67.6758c-1.80664 1.95312-3.4668 2.44141-5.81055 0.0976562l-5.17578-5.12695c-2.29492-2.29492-1.80664-3.95508 0.195312-5.81055l67.4805-62.1582-4.88281-4.83398-68.0664 62.5977c-4.98047 4.58984-5.32227 9.47266-1.02539 13.8184Zm44.873-97.4609c-2.05078 2.00195-2.24609 4.88281-1.07422 6.78711 1.12305 1.80664 3.4668 3.02734 6.5918 2.24609 5.85938-1.66016 12.5977-2.39258 18.8965 0.927734l-2.68555 7.12891c-1.61133 4.00391-0.732422 6.88477 1.70898 9.42383l10.2539 10.3027c2.34375 2.39258 4.54102 2.44141 7.08008 1.95312l4.44336-0.732422 2.58789 2.53906-0.195312 2.24609c-0.0976562 2.29492 0.537109 4.29688 2.7832 6.49414l3.36914 3.32031c2.29492 2.29492 5.51758 2.49023 7.8125 0.195312l12.9883-13.0371c2.29492-2.34375 2.14844-5.37109-0.195312-7.66602l-3.41797-3.41797c-2.19727-2.19727-4.05273-3.02734-6.34766-2.88086l-2.34375 0.244141-2.44141-2.44141 1.02539-4.6875c0.634766-2.73438-0.244141-4.98047-2.88086-7.61719l-11.2793-11.1816c-12.9395-12.8418-35.5957-11.0352-46.6797-0.146484Zm7.08008 2.05078c8.78906-6.39648 25.9766-5.66406 33.6914 1.95312l12.3047 12.207c1.02539 1.02539 1.2207 1.80664 0.927734 3.32031l-1.46484 6.64062 6.73828 6.68945 4.39453-0.244141c1.12305-0.0488281 1.51367 0.0488281 2.34375 0.878906l2.53906 2.49023-10.8398 10.8398-2.49023-2.49023c-0.830078-0.878906-0.976562-1.2207-0.927734-2.39258l0.292969-4.3457-6.68945-6.73828-6.83594 1.17188c-1.41602 0.292969-2.05078 0.195312-3.17383-0.878906l-8.93555-8.88672c-1.07422-1.02539-1.17188-1.70898-0.488281-3.36914l4.58984-11.4746c-6.10352-6.34766-17.041-7.51953-25.5859-4.58984-0.683594 0.244141-0.927734-0.390625-0.390625-0.78125Z"/>
  </g>
  <text style="stroke:none;fill:black;font-family:sans-serif;font-size:13;font-weight:bold;" transform="matrix(1 0 0 1 1289 1953)">Exporting</text>
  <text style="stroke:none;fill:black;font-family:sans-serif;font-size:13;" transform="matrix(1 0 0 1 1289 1971)">Symbols should be outlined when exporting to ensure the</text>
  <text style="stroke:none;fill:black;font-family:sans-serif;font-size:13;" transform="matrix(1 0 0 1 1289 1989)">design is preserved when submitting to Xcode.</text>
  <text id="template-version" style="stroke:none;fill:black;font-family:sans-serif;font-size:13;text-anchor:end;" transform="matrix(1 0 0 1 3036 1933)">Template v.7.0</text>
  <text style="stroke:none;fill:black;font-family:sans-serif;font-size:13;text-anchor:end;" transform="matrix(1 0 0 1 3036 1951)">Requires Xcode 26 or greater</text>
  <text id="descriptive-name" style="stroke:none;fill:black;font-family:sans-serif;font-size:13;text-anchor:end;" transform="matrix(1 0 0 1 3036 1969)">Generated from chart.bar.xaxis</text>
  <text style="stroke:none;fill:black;font-family:sans-serif;font-size:13;text-anchor:end;" transform="matrix(1 0 0 1 3036 1987)">Typeset at 100.0 points</text>
  <text style="stroke:none;fill:black;font-family:sans-serif;font-size:13;" transform="matrix(1 0 0 1 263 726)">Small</text>
  <text style="stroke:none;fill:black;font-family:sans-serif;font-size:13;" transform="matrix(1 0 0 1 263 1156)">Medium</text>
  <text style="stroke:none;fill:black;font-family:sans-serif;font-size:13;" transform="matrix(1 0 0 1 263 1586)">Large</text>
 </g>
 <g id="Guides">
  <g id="H-reference" style="fill:#27AAE1;stroke:none;" transform="matrix(1 0 0 1 339 696)">
   <path d="M0.993654 0L3.63775 0L29.3281-67.1323L30.0303-67.1323L30.0303-70.459L28.1226-70.459ZM11.6885-24.4799L46.9815-24.4799L46.2315-26.7285L12.4385-26.7285ZM55.1196 0L57.7637 0L30.6382-70.459L29.4326-70.459L29.4326-67.1323Z"/>
  </g>
  <line id="Baseline-S" style="fill:none;stroke:#27AAE1;opacity:1;stroke-width:0.5;" x1="263" x2="3036" y1="696" y2="696"/>
  <line id="Capline-S" style="fill:none;stroke:#27AAE1;opacity:1;stroke-width:0.5;" x1="263" x2="3036" y1="625.541" y2="625.541"/>
  <g id="H-reference" style="fill:#27AAE1;stroke:none;" transform="matrix(1 0 0 1 339 1126)">
   <path d="M0.993654 0L3.63775 0L29.3281-67.1323L30.0303-67.1323L30.0303-70.459L28.1226-70.459ZM11.6885-24.4799L46.9815-24.4799L46.2315-26.7285L12.4385-26.7285ZM55.1196 0L57.7637 0L30.6382-70.459L29.4326-70.459L29.4326-67.1323Z"/>
  </g>
  <line id="Baseline-M" style="fill:none;stroke:#27AAE1;opacity:1;stroke-width:0.5;" x1="263" x2="3036" y1="1126" y2="1126"/>
  <line id="Capline-M" style="fill:none;stroke:#27AAE1;opacity:1;stroke-width:0.5;" x1="263" x2="3036" y1="1055.54" y2="1055.54"/>
  <g id="H-reference" style="fill:#27AAE1;stroke:none;" transform="matrix(1 0 0 1 339 1556)">
   <path d="M0.993654 0L3.63775 0L29.3281-67.1323L30.0303-67.1323L30.0303-70.459L28.1226-70.459ZM11.6885-24.4799L46.9815-24.4799L46.2315-26.7285L12.4385-26.7285ZM55.1196 0L57.7637 0L30.6382-70.459L29.4326-70.459L29.4326-67.1323Z"/>
  </g>
  <line id="Baseline-L" style="fill:none;stroke:#27AAE1;opacity:1;stroke-width:0.5;" x1="263" x2="3036" y1="1556" y2="1556"/>
  <line id="Capline-L" style="fill:none;stroke:#27AAE1;opacity:1;stroke-width:0.5;" x1="263" x2="3036" y1="1485.54" y2="1485.54"/>
  <line id="right-margin-Black-S" style="fill:none;stroke:#00AEEF;stroke-width:0.5;opacity:1.0;" x1="2991.8" x2="2991.8" y1="600.785" y2="720.121"/>
  <line id="left-margin-Black-S" style="fill:none;stroke:#00AEEF;stroke-width:0.5;opacity:1.0;" x1="2875" x2="2875" y1="600.785" y2="720.121"/>
  <line id="right-margin-Regular-S" style="fill:none;stroke:#00AEEF;stroke-width:0.5;opacity:1.0;" x1="1502.58" x2="1502.58" y1="600.785" y2="720.121"/>
  <line id="left-margin-Regular-S" style="fill:none;stroke:#00AEEF;stroke-width:0.5;opacity:1.0;" x1="1397.11" x2="1397.11" y1="600.785" y2="720.121"/>
  <line id="right-margin-Ultralight-S" style="fill:none;stroke:#00AEEF;stroke-width:0.5;opacity:1.0;" x1="610.765" x2="610.765" y1="600.785" y2="720.121"/>
  <line id="left-margin-Ultralight-S" style="fill:none;stroke:#00AEEF;stroke-width:0.5;opacity:1.0;" x1="508.657" x2="508.657" y1="600.785" y2="720.121"/>
 </g>
 <g id="Symbols">
  <g id="Black-S" transform="matrix(1 0 0 1 2875 696)">
   <path class="monochrome-0 multicolor-0:tintColor hierarchical-0:secondary SFSymbolsPreviewWireframe" d="M9.76562-3.90625C9.76562 0.244141 12.7441 2.92969 16.7969 2.92969L100 2.92969C104.053 2.92969 107.031 0.244141 107.031-3.90625C107.031-8.05664 104.053-10.7422 100-10.7422L16.7969-10.7422C12.7441-10.7422 9.76562-8.05664 9.76562-3.90625Z" data-clipstroke-keyframes="0 0 0 0.94856405 0.052721024 0 1 0.44727898 0.55143595"/>
   <path class="monochrome-1 multicolor-1:tintColor hierarchical-1:primary SFSymbolsPreviewWireframe" d="M82.1289-23.1445C82.1289-19.8242 84.3262-17.5781 87.5488-17.5781L94.5801-17.5781C97.8027-17.5781 100-19.8242 100-23.1445L100-44.9219C100-48.291 97.8027-50.5371 94.5801-50.5371L87.5488-50.5371C84.3262-50.5371 82.1289-48.291 82.1289-44.9219Z" data-clipstroke-keyframes="0 2 0 0.26279902 0.99908185 0 1 0.49861264 0.76585793"/>
   <path class="monochrome-2 multicolor-2:tintColor hierarchical-2:primary SFSymbolsPreviewWireframe" d="M60.3516-23.1445C60.3516-19.8242 62.4512-17.5781 65.7227-17.5781L72.8027-17.5781C76.0254-17.5781 78.2227-19.8242 78.2227-23.1445L78.2227-57.5195C78.2227-60.8887 76.0254-63.1348 72.8027-63.1348L65.7227-63.1348C62.4512-63.1348 60.3516-60.8887 60.3516-57.5195Z" data-clipstroke-keyframes="0 2 0 0.20675111 0.99943066 0 1 0.5009632 0.7101424"/>
   <path class="monochrome-3 multicolor-3:tintColor hierarchical-3:primary SFSymbolsPreviewWireframe" d="M38.5742-23.1445C38.5742-19.8242 40.7715-17.5781 44.043-17.5781L51.0254-17.5781C54.2969-17.5781 56.4453-19.8242 56.4453-23.1445L56.4453-67.7246C56.4453-71.0938 54.2969-73.3398 51.0254-73.3398L44.043-73.3398C40.7715-73.3398 38.5742-71.0938 38.5742-67.7246Z" data-clipstroke-keyframes="0 2 0 0.17613435 0.99937034 0 1 0.49905586 0.6781986"/>
   <path class="monochrome-4 multicolor-4:tintColor hierarchical-4:primary SFSymbolsPreviewWireframe" d="M16.7969-23.1445C16.7969-19.8242 18.9941-17.5781 22.2168-17.5781L29.248-17.5781C32.4707-17.5781 34.668-19.8242 34.668-23.1445L34.668-51.2695C34.668-54.6387 32.4707-56.8848 29.248-56.8848L22.2168-56.8848C18.9941-56.8848 16.7969-54.6387 16.7969-51.2695Z" data-clipstroke-keyframes="0 2 0 0.23112755 0.9989571 0 1 0.50107884 0.7350961"/>
  </g>
  <g id="Regular-S" transform="matrix(1 0 0 1 1397.11 696)">
   <path class="monochrome-0 multicolor-0:tintColor hierarchical-0:secondary SFSymbolsPreviewWireframe" d="M9.76562-3.125C9.76562-1.17188 11.377 0.390625 13.2812 0.390625L92.1875 0.390625C94.0918 0.390625 95.7031-1.17188 95.7031-3.125C95.7031-5.0293 94.0918-6.64062 92.1875-6.64062L13.2812-6.64062C11.377-6.64062 9.76562-5.0293 9.76562-3.125Z" data-clipstroke-keyframes="0 0 0 0.96962976 0.031105042 0 1 0.4689536 0.5304289"/>
   <path class="monochrome-1 multicolor-1:tintColor hierarchical-1:primary SFSymbolsPreviewWireframe" d="M75.8789-16.8945C75.8789-14.6484 77.2461-13.3301 79.5898-13.3301L88.0371-13.3301C90.332-13.3301 91.6992-14.6484 91.6992-16.8945L91.6992-41.3574C91.6992-43.5547 90.332-44.9219 88.0371-44.9219L79.5898-44.9219C77.2461-44.9219 75.8789-43.5547 75.8789-41.3574Z" data-clipstroke-keyframes="0 2 0 0.2249403 0.99892735 0 1 0.49959254 0.7259369"/>
   <path class="monochrome-2 multicolor-2:tintColor hierarchical-2:primary SFSymbolsPreviewWireframe" d="M55.1758-16.8945C55.1758-14.6484 56.543-13.3301 58.8867-13.3301L67.2852-13.3301C69.6289-13.3301 70.9961-14.6484 70.9961-16.8945L70.9961-58.6426C70.9961-60.8887 69.6289-62.207 67.2852-62.207L58.8867-62.207C56.543-62.207 55.1758-60.8887 55.1758-58.6426Z" data-clipstroke-keyframes="0 2 0 0.16199541 0.99934053 0 1 0.5004244 0.66307926"/>
   <path class="monochrome-3 multicolor-3:tintColor hierarchical-3:primary SFSymbolsPreviewWireframe" d="M34.4727-16.8945C34.4727-14.6484 35.8398-13.3301 38.1348-13.3301L46.582-13.3301C48.9258-13.3301 50.293-14.6484 50.293-16.8945L50.293-67.2852C50.293-69.5312 48.9258-70.8008 46.582-70.8008L38.1348-70.8008C35.8398-70.8008 34.4727-69.5312 34.4727-67.2852Z" data-clipstroke-keyframes="0 2 0 0.14222014 0.99930143 0 1 0.49987447 0.6427181"/>
   <path class="monochrome-4 multicolor-4:tintColor hierarchical-4:primary SFSymbolsPreviewWireframe" d="M13.7695-16.8945C13.7695-14.6484 15.1367-13.3301 17.4316-13.3301L25.8789-13.3301C28.2227-13.3301 29.5898-14.6484 29.5898-16.8945L29.5898-49.8535C29.5898-52.0508 28.2227-53.3691 25.8789-53.3691L17.4316-53.3691C15.1367-53.3691 13.7695-52.0508 13.7695-49.8535Z" data-clipstroke-keyframes="0 2 0 0.18902092 0.9993928 0 1 0.50089127 0.69001967"/>
  </g>
  <g id="Ultralight-S" transform="matrix(1 0 0 1 508.657 696)">
   <path class="monochrome-0 multicolor-0:tintColor hierarchical-0:secondary SFSymbolsPreviewWireframe" d="M9.76562-2.2168C9.76562-1.48974 10.2871-1.15331 10.8745-1.15331L91.2793-1.15331C91.8213-1.15331 92.3428-1.48974 92.3428-2.2168C92.3428-2.89504 91.8213-3.23489 91.2793-3.23489L10.8745-3.23489C10.2871-3.23489 9.76562-2.89504 9.76562-2.2168Z" data-clipstroke-keyframes="0 0 0 0.9902191 0.010816097 0 1 0.48990297 0.5097995"/>
   <path class="monochrome-1 multicolor-1:tintColor hierarchical-1:primary SFSymbolsPreviewWireframe" d="M73.9263-10.5372C73.9263-8.83598 75.0664-7.74467 76.9107-7.74467L87.4468-7.74467C89.1514-7.74467 90.3823-8.83598 90.3823-10.5372L90.3823-39.6318C90.3823-41.3296 89.1514-42.4243 87.4468-42.4243L76.9107-42.4243C75.0664-42.4243 73.9263-41.3296 73.9263-39.6318Z" data-clipstroke-keyframes="0 2 0 0.20110774 0.99883556 0 1 0.4988439 0.70307636"/>
   <path class="monochrome-2 multicolor-2:tintColor hierarchical-2:primary SFSymbolsPreviewWireframe" d="M53.1778-10.5372C53.1778-8.83598 54.3633-7.74467 56.1167-7.74467L66.6948-7.74467C68.4483-7.74467 69.6338-8.83598 69.6338-10.5372L69.6338-57.4619C69.6338-59.1631 68.4483-60.2544 66.6948-60.2544L56.1167-60.2544C54.3633-60.2544 53.1778-59.1631 53.1778-57.4619Z" data-clipstroke-keyframes="0 2 0 0.14731455 0.9993124 0 1 0.5005951 0.6499727"/>
   <path class="monochrome-3 multicolor-3:tintColor hierarchical-3:primary SFSymbolsPreviewWireframe" d="M32.4292-10.5372C32.4292-8.83598 33.6148-7.74467 35.4102-7.74467L45.9463-7.74467C47.6997-7.74467 48.8853-8.83598 48.8853-10.5372L48.8853-66.604C48.8853-68.2598 47.6997-69.3477 45.9463-69.3477L35.4102-69.3477C33.6148-69.3477 32.4292-68.2598 32.4292-66.604Z" data-clipstroke-keyframes="0 2 0 0.12959278 0.9992771 0 1 0.4995545 0.6305618"/>
   <path class="monochrome-4 multicolor-4:tintColor hierarchical-4:primary SFSymbolsPreviewWireframe" d="M11.7261-10.5372C11.7261-8.83598 12.8662-7.74467 14.7071-7.74467L25.2432-7.74467C26.9512-7.74467 28.1821-8.83598 28.1821-10.5372L28.1821-48.4004C28.1821-50.0982 26.9512-51.1895 25.2432-51.1895L14.7071-51.1895C12.8662-51.1895 11.7261-50.0982 11.7261-48.4004Z" data-clipstroke-keyframes="0 2 0 0.17048378 0.9987154 0 1 0.50071347 0.67371565"/>
  </g>
 </g>
</svg>
