<?xml version="1.0" encoding="UTF-8"?>
<!--Generator: Apple Native CoreSVG 341-->
<!DOCTYPE svg
PUBLIC "-//W3C//DTD SVG 1.1//EN"
       "http://www.w3.org/Graphics/SVG/1.1/DTD/svg11.dtd">
<svg version="1.1" xmlns="http://www.w3.org/2000/svg" xmlns:xlink="http://www.w3.org/1999/xlink" viewBox="0 0 3300 2200">
 <!--glyph: "101384", point size: 100.0, font version: "21.1d1e1", template writer version: "138.0.0"-->
 <style>.defaults {-sfsymbols-variable-value-mode:color;-sfsymbols-draw-reverses-motion-groups:false}

.monochrome-0 {-sfsymbols-variable-threshold:0.68;-sfsymbols-motion-group:2;-sfsymbols-layer-tags:water.waves}
.monochrome-1 {-sfsymbols-variable-threshold:0.34;-sfsymbols-motion-group:1;-sfsymbols-layer-tags:water.waves}
.monochrome-2 {-sfsymbols-variable-threshold:0.0;-sfsymbols-motion-group:0;-sfsymbols-layer-tags:water.waves}

.multicolor-0:tintColor {-sfsymbols-variable-threshold:0.68;-sfsymbols-motion-group:2;-sfsymbols-layer-tags:water.waves}
.multicolor-1:tintColor {-sfsymbols-variable-threshold:0.34;-sfsymbols-motion-group:1;-sfsymbols-layer-tags:water.waves}
.multicolor-2:tintColor {-sfsymbols-variable-threshold:0.0;-sfsymbols-motion-group:0;-sfsymbols-layer-tags:water.waves}

.hierarchical-0:primary {-sfsymbols-variable-threshold:0.68;-sfsymbols-motion-group:2;-sfsymbols-layer-tags:water.waves}
.hierarchical-1:primary {-sfsymbols-variable-threshold:0.34;-sfsymbols-motion-group:1;-sfsymbols-layer-tags:water.waves}
.hierarchical-2:primary {-sfsymbols-variable-threshold:0.0;-sfsymbols-motion-group:0;-sfsymbols-layer-tags:water.waves}

.SFSymbolsPreviewWireframe {fill:none;opacity:1.0;stroke:black;stroke-width:0.5}
</style>
 <g id="Notes">
  <rect height="2200" id="artboard" style="fill:white;opacity:1" width="3300" x="0" y="0"/>
  <line style="fill:none;stroke:black;opacity:1;stroke-width:0.5;" x1="263" x2="3036" y1="292" y2="292"/>
  <text style="stroke:none;fill:black;font-family:sans-serif;font-size:13;font-weight:bold;" transform="matrix(1 0 0 1 263 322)">Weight/Scale Variations</text>
  <text style="stroke:none;fill:black;font-family:sans-serif;font-size:13;text-anchor:middle;" transform="matrix(1 0 0 1 559.711 322)">Ultralight</text>
  <text style="stroke:none;fill:black;font-family:sans-serif;font-size:13;text-anchor:middle;" transform="matrix(1 0 0 1 856.422 322)">Thin</text>
  <text style="stroke:none;fill:black;font-family:sans-serif;font-size:13;text-anchor:middle;" transform="matrix(1 0 0 1 1153.13 322)">Light</text>
  <text style="stroke:none;fill:black;font-family:sans-serif;font-size:13;text-anchor:middle;" transform="matrix(1 0 0 1 1449.84 322)">Regular</text>
  <text style="stroke:none;fill:black;font-family:sans-serif;font-size:13;text-anchor:middle;" transform="matrix(1 0 0 1 1746.56 322)">Medium</text>
  <text style="stroke:none;fill:black;font-family:sans-serif;font-size:13;text-anchor:middle;" transform="matrix(1 0 0 1 2043.27 322)">Semibold</text>
  <text style="stroke:none;fill:black;font-family:sans-serif;font-size:13;text-anchor:middle;" transform="matrix(1 0 0 1 2339.98 322)">Bold</text>
  <text style="stroke:none;fill:black;font-family:sans-serif;font-size:13;text-anchor:middle;" transform="matrix(1 0 0 1 2636.69 322)">Heavy</text>
  <text style="stroke:none;fill:black;font-family:sans-serif;font-size:13;text-anchor:middle;" transform="matrix(1 0 0 1 2933.4 322)">Black</text>
  <line style="fill:none;stroke:black;opacity:1;stroke-width:0.5;" x1="263" x2="3036" y1="1903" y2="1903"/>
  <g transform="matrix(0.2 0 0 0.2 263 1933)">
   <path d="m46.2402 4.15039c21.7773 0 39.4531-17.627 39.4531-39.4043s-17.6758-39.4043-39.4531-39.4043c-21.7285 0-39.4043 17.627-39.4043 39.4043s17.6758 39.4043 39.4043 39.4043Zm0-7.42188c-17.6758 0-31.9336-14.3066-31.9336-31.9824s14.2578-31.9824 31.9336-31.9824 31.9824 14.3066 31.9824 31.9824-14.3066 31.9824-31.9824 31.9824Zm3.61328-17.7734v-28.4668c0-2.24609-1.46484-3.75977-3.71094-3.75977-2.14844 0-3.61328 1.51367-3.61328 3.75977v28.4668c0 2.19727 1.46484 3.71094 3.61328 3.71094 2.24609 0 3.71094-1.51367 3.71094-3.71094Zm-17.8223-10.5957h28.418c2.19727 0 3.71094-1.46484 3.71094-3.61328 0-2.19727-1.51367-3.71094-3.71094-3.71094h-28.418c-2.24609 0-3.75977 1.51367-3.75977 3.71094 0 2.14844 1.51367 3.61328 3.75977 3.61328Z"/>
  </g>
  <g transform="matrix(0.2 0 0 0.2 281.506 1933)">
   <path d="m58.5449 14.5508c27.4902 0 49.8047-22.3145 49.8047-49.8047s-22.3145-49.8047-49.8047-49.8047-49.8047 22.3145-49.8047 49.8047 22.3145 49.8047 49.8047 49.8047Zm0-8.30078c-22.9492 0-41.5039-18.5547-41.5039-41.5039s18.5547-41.5039 41.5039-41.5039 41.5039 18.5547 41.5039 41.5039-18.5547 41.5039-41.5039 41.5039Zm4.05273-23.0957v-36.9141c0-2.49023-1.70898-4.19922-4.15039-4.19922-2.39258 0-4.05273 1.70898-4.05273 4.19922v36.9141c0 2.44141 1.66016 4.15039 4.05273 4.15039 2.44141 0 4.15039-1.66016 4.15039-4.15039Zm-22.5586-14.4043h36.9629c2.44141 0 4.15039-1.61133 4.15039-4.00391 0-2.44141-1.70898-4.15039-4.15039-4.15039h-36.9629c-2.49023 0-4.15039 1.70898-4.15039 4.15039 0 2.39258 1.66016 4.00391 4.15039 4.00391Z"/>
  </g>
  <g transform="matrix(0.2 0 0 0.2 304.924 1933)">
   <path d="m74.8535 28.3203c35.1074 0 63.623-28.4668 63.623-63.5742s-28.5156-63.623-63.623-63.623-63.5742 28.5156-63.5742 63.623 28.4668 63.5742 63.5742 63.5742Zm0-9.08203c-30.127 0-54.4922-24.3652-54.4922-54.4922s24.3652-54.4922 54.4922-54.4922 54.4922 24.3652 54.4922 54.4922-24.3652 54.4922-54.4922 54.4922Zm4.44336-30.3223v-48.4863c0-2.73438-1.85547-4.63867-4.54102-4.63867-2.58789 0-4.44336 1.9043-4.44336 4.63867v48.4863c0 2.68555 1.85547 4.58984 4.44336 4.58984 2.68555 0 4.54102-1.85547 4.54102-4.58984Zm-28.7109-19.7754h48.4863c2.68555 0 4.58984-1.80664 4.58984-4.39453 0-2.73438-1.85547-4.58984-4.58984-4.58984h-48.4863c-2.73438 0-4.58984 1.85547-4.58984 4.58984 0 2.58789 1.85547 4.39453 4.58984 4.39453Z"/>
  </g>
  <text style="stroke:none;fill:black;font-family:sans-serif;font-size:13;font-weight:bold;" transform="matrix(1 0 0 1 263 1953)">Design Variations</text>
  <text style="stroke:none;fill:black;font-family:sans-serif;font-size:13;" transform="matrix(1 0 0 1 263 1971)">Symbols are supported in up to nine weights and three scales.</text>
  <text style="stroke:none;fill:black;font-family:sans-serif;font-size:13;" transform="matrix(1 0 0 1 263 1989)">For optimal layout with text and other symbols, vertically align</text>
  <text style="stroke:none;fill:black;font-family:sans-serif;font-size:13;" transform="matrix(1 0 0 1 263 2007)">symbols with the adjacent text.</text>
  <line style="fill:none;stroke:#00AEEF;stroke-width:0.5;opacity:1.0;" x1="776" x2="776" y1="1919" y2="1933"/>
  <g transform="matrix(0.2 0 0 0.2 776 1933)">
   <path d="m16.5527 0.78125c2.58789 0 3.85742-0.976562 4.78516-3.71094l20.5566-57.5195h0.244141l20.6055 57.5195c0.927734 2.73438 2.19727 3.71094 4.73633 3.71094 2.58789 0 4.24805-1.5625 4.24805-4.00391 0-0.830078-0.146484-1.61133-0.537109-2.63672l-22.9004-60.9863c-1.12305-2.97852-3.125-4.49219-6.25-4.49219-3.02734 0-5.07812 1.46484-6.15234 4.44336l-22.9004 61.084c-0.390625 1.02539-0.537109 1.80664-0.537109 2.63672 0 2.44141 1.5625 3.95508 4.10156 3.95508Zm10.2051-20.9473h30.6641c2.00195 0 3.66211-1.66016 3.66211-3.66211 0-2.05078-1.66016-3.66211-3.66211-3.66211h-30.6641c-2.00195 0-3.66211 1.61133-3.66211 3.66211 0 2.00195 1.66016 3.66211 3.66211 3.66211Z"/>
  </g>
  <line style="fill:none;stroke:#00AEEF;stroke-width:0.5;opacity:1.0;" x1="792.836" x2="792.836" y1="1919" y2="1933"/>
  <text style="stroke:none;fill:black;font-family:sans-serif;font-size:13;font-weight:bold;" transform="matrix(1 0 0 1 776 1953)">Margins</text>
  <text style="stroke:none;fill:black;font-family:sans-serif;font-size:13;" transform="matrix(1 0 0 1 776 1971)">Leading and trailing margins on the left and right side of each symbol</text>
  <text style="stroke:none;fill:black;font-family:sans-serif;font-size:13;" transform="matrix(1 0 0 1 776 1989)">can be adjusted by modifying the x-location of the margin guidelines.</text>
  <text style="stroke:none;fill:black;font-family:sans-serif;font-size:13;" transform="matrix(1 0 0 1 776 2007)">Modifications are automatically applied proportionally to all</text>
  <text style="stroke:none;fill:black;font-family:sans-serif;font-size:13;" transform="matrix(1 0 0 1 776 2025)">scales and weights.</text>
  <g transform="matrix(0.2 0 0 0.2 1289 1933)">
   <path d="m14.209 13.1348 7.86133 7.86133c4.29688 4.39453 9.32617 4.10156 13.8672-1.02539l60.6934-68.2129-4.88281-4.88281-60.2539 67.6758c-1.80664 1.95312-3.4668 2.44141-5.81055 0.0976562l-5.17578-5.12695c-2.29492-2.29492-1.80664-3.95508 0.195312-5.81055l67.4805-62.1582-4.88281-4.83398-68.0664 62.5977c-4.98047 4.58984-5.32227 9.47266-1.02539 13.8184Zm44.873-97.4609c-2.05078 2.00195-2.24609 4.88281-1.07422 6.78711 1.12305 1.80664 3.4668 3.02734 6.5918 2.24609 5.85938-1.66016 12.5977-2.39258 18.8965 0.927734l-2.68555 7.12891c-1.61133 4.00391-0.732422 6.88477 1.70898 9.42383l10.2539 10.3027c2.34375 2.39258 4.54102 2.44141 7.08008 1.95312l4.44336-0.732422 2.58789 2.53906-0.195312 2.24609c-0.0976562 2.29492 0.537109 4.29688 2.7832 6.49414l3.36914 3.32031c2.29492 2.29492 5.51758 2.49023 7.8125 0.195312l12.9883-13.0371c2.29492-2.34375 2.14844-5.37109-0.195312-7.66602l-3.41797-3.41797c-2.19727-2.19727-4.05273-3.02734-6.34766-2.88086l-2.34375 0.244141-2.44141-2.44141 1.02539-4.6875c0.634766-2.73438-0.244141-4.98047-2.88086-7.61719l-11.2793-11.1816c-12.9395-12.8418-35.5957-11.0352-46.6797-0.146484Zm7.08008 2.05078c8.78906-6.39648 25.9766-5.66406 33.6914 1.95312l12.3047 12.207c1.02539 1.02539 1.2207 1.80664 0.927734 3.32031l-1.46484 6.64062 6.73828 6.68945 4.39453-0.244141c1.12305-0.0488281 1.51367 0.0488281 2.34375 0.878906l2.53906 2.49023-10.8398 10.8398-2.49023-2.49023c-0.830078-0.878906-0.976562-1.2207-0.927734-2.39258l0.292969-4.3457-6.68945-6.73828-6.83594 1.17188c-1.41602 0.292969-2.05078 0.195312-3.17383-0.878906l-8.93555-8.88672c-1.07422-1.02539-1.17188-1.70898-0.488281-3.36914l4.58984-11.4746c-6.10352-6.34766-17.041-7.51953-25.5859-4.58984-0.683594 0.244141-0.927734-0.390625-0.390625-0.78125Z"/>
  </g>
  <text style="stroke:none;fill:black;font-family:sans-serif;font-size:13;font-weight:bold;" transform="matrix(1 0 0 1 1289 1953)">Exporting</text>
  <text style="stroke:none;fill:black;font-family:sans-serif;font-size:13;" transform="matrix(1 0 0 1 1289 1971)">Symbols should be outlined when exporting to ensure the</text>
  <text style="stroke:none;fill:black;font-family:sans-serif;font-size:13;" transform="matrix(1 0 0 1 1289 1989)">design is preserved when submitting to Xcode.</text>
  <text id="template-version" style="stroke:none;fill:black;font-family:sans-serif;font-size:13;text-anchor:end;" transform="matrix(1 0 0 1 3036 1933)">Template v.7.0</text>
  <text style="stroke:none;fill:black;font-family:sans-serif;font-size:13;text-anchor:end;" transform="matrix(1 0 0 1 3036 1951)">Requires Xcode 26 or greater</text>
  <text id="descriptive-name" style="stroke:none;fill:black;font-family:sans-serif;font-size:13;text-anchor:end;" transform="matrix(1 0 0 1 3036 1969)">Generated from water.waves</text>
  <text style="stroke:none;fill:black;font-family:sans-serif;font-size:13;text-anchor:end;" transform="matrix(1 0 0 1 3036 1987)">Typeset at 100.0 points</text>
  <text style="stroke:none;fill:black;font-family:sans-serif;font-size:13;" transform="matrix(1 0 0 1 263 726)">Small</text>
  <text style="stroke:none;fill:black;font-family:sans-serif;font-size:13;" transform="matrix(1 0 0 1 263 1156)">Medium</text>
  <text style="stroke:none;fill:black;font-family:sans-serif;font-size:13;" transform="matrix(1 0 0 1 263 1586)">Large</text>
 </g>
 <g id="Guides">
  <g id="H-reference" style="fill:#27AAE1;stroke:none;" transform="matrix(1 0 0 1 339 696)">
   <path d="M0.993654 0L3.63775 0L29.3281-67.1323L30.0303-67.1323L30.0303-70.459L28.1226-70.459ZM11.6885-24.4799L46.9815-24.4799L46.2315-26.7285L12.4385-26.7285ZM55.1196 0L57.7637 0L30.6382-70.459L29.4326-70.459L29.4326-67.1323Z"/>
  </g>
  <line id="Baseline-S" style="fill:none;stroke:#27AAE1;opacity:1;stroke-width:0.5;" x1="263" x2="3036" y1="696" y2="696"/>
  <line id="Capline-S" style="fill:none;stroke:#27AAE1;opacity:1;stroke-width:0.5;" x1="263" x2="3036" y1="625.541" y2="625.541"/>
  <g id="H-reference" style="fill:#27AAE1;stroke:none;" transform="matrix(1 0 0 1 339 1126)">
   <path d="M0.993654 0L3.63775 0L29.3281-67.1323L30.0303-67.1323L30.0303-70.459L28.1226-70.459ZM11.6885-24.4799L46.9815-24.4799L46.2315-26.7285L12.4385-26.7285ZM55.1196 0L57.7637 0L30.6382-70.459L29.4326-70.459L29.4326-67.1323Z"/>
  </g>
  <line id="Baseline-M" style="fill:none;stroke:#27AAE1;opacity:1;stroke-width:0.5;" x1="263" x2="3036" y1="1126" y2="1126"/>
  <line id="Capline-M" style="fill:none;stroke:#27AAE1;opacity:1;stroke-width:0.5;" x1="263" x2="3036" y1="1055.54" y2="1055.54"/>
  <g id="H-reference" style="fill:#27AAE1;stroke:none;" transform="matrix(1 0 0 1 339 1556)">
   <path d="M0.993654 0L3.63775 0L29.3281-67.1323L30.0303-67.1323L30.0303-70.459L28.1226-70.459ZM11.6885-24.4799L46.9815-24.4799L46.2315-26.7285L12.4385-26.7285ZM55.1196 0L57.7637 0L30.6382-70.459L29.4326-70.459L29.4326-67.1323Z"/>
  </g>
  <line id="Baseline-L" style="fill:none;stroke:#27AAE1;opacity:1;stroke-width:0.5;" x1="263" x2="3036" y1="1556" y2="1556"/>
  <line id="Capline-L" style="fill:none;stroke:#27AAE1;opacity:1;stroke-width:0.5;" x1="263" x2="3036" y1="1485.54" y2="1485.54"/>
  <line id="right-margin-Black-S" style="fill:none;stroke:#00AEEF;stroke-width:0.5;opacity:1.0;" x1="2987.45" x2="2987.45" y1="600.785" y2="720.121"/>
  <line id="left-margin-Black-S" style="fill:none;stroke:#00AEEF;stroke-width:0.5;opacity:1.0;" x1="2879.35" x2="2879.35" y1="600.785" y2="720.121"/>
  <line id="right-margin-Regular-S" style="fill:none;stroke:#00AEEF;stroke-width:0.5;opacity:1.0;" x1="1500.16" x2="1500.16" y1="600.785" y2="720.121"/>
  <line id="left-margin-Regular-S" style="fill:none;stroke:#00AEEF;stroke-width:0.5;opacity:1.0;" x1="1399.53" x2="1399.53" y1="600.785" y2="720.121"/>
  <line id="right-margin-Ultralight-S" style="fill:none;stroke:#00AEEF;stroke-width:0.5;opacity:1.0;" x1="608.053" x2="608.053" y1="600.785" y2="720.121"/>
  <line id="left-margin-Ultralight-S" style="fill:none;stroke:#00AEEF;stroke-width:0.5;opacity:1.0;" x1="511.369" x2="511.369" y1="600.785" y2="720.121"/>
 </g>
 <g id="Symbols">
  <g id="Black-S" transform="matrix(1 0 0 1 2879.35 696)">
   <path class="monochrome-0 multicolor-0:tintColor hierarchical-0:primary SFSymbolsPreviewWireframe" d="M54.0527-2.97852C66.5039-2.97852 67.7246-11.084 72.9492-11.084C78.1738-11.084 79.0039-2.97852 92.6758-2.97852L93.0664-2.97852C95.9961-2.97852 98.3398-5.32227 98.3398-8.25195C98.3398-11.1328 95.9961-13.4766 93.0664-13.4766L92.6758-13.4766C90.1855-13.4766 88.1836-14.3555 84.5703-16.9434C81.9824-18.8477 78.1738-21.582 72.9492-21.582C67.7246-21.582 63.916-18.8477 61.3281-16.9434C58.5449-14.8926 56.7871-13.4766 54.0527-13.4766C51.3184-13.4766 49.5605-14.8926 46.7773-16.9434C44.1895-18.8477 40.3809-21.582 35.1562-21.582C29.9316-21.582 26.123-18.8477 23.5352-16.9434C19.9219-14.3555 17.9199-13.4766 15.4297-13.4766L15.0391-13.4766C12.1094-13.4766 9.76562-11.1328 9.76562-8.25195C9.76562-5.32227 12.1094-2.97852 15.0391-2.97852L15.4297-2.97852C29.1016-2.97852 29.9316-11.084 35.1562-11.084C40.3809-11.084 41.6016-2.97852 54.0527-2.97852Z" data-clipstroke-keyframes="0 8 0 0.49968982 0.00035309792 0 0.27178374 0.07331824 0.45975733 0 0.78216684 0.14710355 0.3221004 0 1 0.20871687 0.29319906 0 0.20163527 0.52536917 0.94196343 0 0.7828743 0.67789936 0.85289717 0 1 0.70680094 0.79128313"/>
   <path class="monochrome-1 multicolor-1:tintColor hierarchical-1:primary SFSymbolsPreviewWireframe" d="M54.0527-25.9277C66.5039-25.9277 67.7246-34.0332 72.9492-34.0332C78.1738-34.0332 79.0039-25.9277 92.6758-25.9277L93.0664-25.9277C95.9961-25.9277 98.3398-28.2715 98.3398-31.2012C98.3398-34.082 95.9961-36.4258 93.0664-36.4258L92.6758-36.4258C90.1855-36.4258 88.1836-37.3047 84.5703-39.8926C81.9824-41.7969 78.1738-44.5312 72.9492-44.5312C67.7246-44.5312 63.916-41.7969 61.3281-39.8926C58.5449-37.8418 56.7871-36.4258 54.0527-36.4258C51.3184-36.4258 49.5605-37.8418 46.7773-39.8926C44.1895-41.7969 40.3809-44.5312 35.1562-44.5312C29.9316-44.5312 26.123-41.7969 23.5352-39.8926C19.9219-37.3047 17.9199-36.4258 15.4297-36.4258L15.0391-36.4258C12.1094-36.4258 9.76562-34.082 9.76562-31.2012C9.76562-28.2715 12.1094-25.9277 15.0391-25.9277L15.4297-25.9277C29.1016-25.9277 29.9316-34.0332 35.1562-34.0332C40.3809-34.0332 41.6016-25.9277 54.0527-25.9277Z" data-clipstroke-keyframes="0 8 0 0.49968982 0.00035321712 0 0.1991328 0.058826566 0.4744661 0 0.7029921 0.13182545 0.3368101 0 1 0.2114693 0.29173243 0 0.7828743 0.6778995 0.85289717 0 0.20386337 0.5255288 0.9411931 0 1 0.70680106 0.791283"/>
   <path class="monochrome-2 multicolor-2:tintColor hierarchical-2:primary SFSymbolsPreviewWireframe" d="M54.0527-48.877C66.5039-48.877 67.7246-56.9824 72.9492-56.9824C78.1738-56.9824 79.0039-48.877 92.6758-48.877L93.0664-48.877C95.9961-48.877 98.3398-51.2207 98.3398-54.1504C98.3398-57.0312 95.9961-59.375 93.0664-59.375L92.6758-59.375C90.1855-59.375 88.1836-60.2539 84.5703-62.8418C81.9824-64.7461 78.1738-67.4805 72.9492-67.4805C67.7246-67.4805 63.916-64.7461 61.3281-62.8418C58.5449-60.791 56.7871-59.375 54.0527-59.375C51.3184-59.375 49.5605-60.791 46.7773-62.8418C44.1895-64.7461 40.3809-67.4805 35.1562-67.4805C29.9316-67.4805 26.123-64.7461 23.5352-62.8418C19.9219-60.2539 17.9199-59.375 15.4297-59.375L15.0391-59.375C12.1094-59.375 9.76562-57.0312 9.76562-54.1504C9.76562-51.2207 12.1094-48.877 15.0391-48.877L15.4297-48.877C29.1016-48.877 29.9316-56.9824 35.1562-56.9824C40.3809-56.9824 41.6016-48.877 54.0527-48.877Z" data-clipstroke-keyframes="0 8 0 0.49968982 0.0003531778 0 0.26881915 0.073318355 0.4597574 0 0.7029921 0.13182539 0.33681008 0 1 0.21146932 0.2917324 0 0.2740777 0.54024255 0.9266865 0 0.7108126 0.6631899 0.8681803 0 1 0.70680106 0.791283"/>
  </g>
  <g id="Regular-S" transform="matrix(1 0 0 1 1399.53 696)">
   <path class="monochrome-0 multicolor-0:tintColor hierarchical-0:primary SFSymbolsPreviewWireframe" d="M50.3418-5.0293C61.0352-5.0293 62.7441-12.793 68.5059-12.793C74.4141-12.793 75.3906-5.0293 87.6465-5.0293L87.8418-5.0293C89.502-5.0293 90.8691-6.39648 90.8691-8.10547C90.8691-9.76562 89.502-11.1328 87.8418-11.1328L87.6465-11.1328C83.6426-11.1328 81.3965-12.793 78.5156-14.8438C76.0254-16.6504 72.8516-18.8965 68.5059-18.8965C63.9648-18.8965 60.7422-16.5039 58.252-14.6484C55.6152-12.6465 53.6133-11.1328 50.3418-11.1328C47.0215-11.1328 45.0195-12.6465 42.3828-14.6484C39.8926-16.5039 36.6699-18.8965 32.1777-18.8965C27.7832-18.8965 24.6094-16.6504 22.1191-14.8438C19.2383-12.793 16.9922-11.1328 13.0371-11.1328L12.8418-11.1328C11.1328-11.1328 9.76562-9.76562 9.76562-8.10547C9.76562-6.39648 11.1328-5.0293 12.8418-5.0293L13.0371-5.0293C25.293-5.0293 26.2695-12.793 32.1777-12.793C37.9395-12.793 39.5996-5.0293 50.3418-5.0293Z" data-clipstroke-keyframes="0 8 0 0.4995525 0.0003376007 0 0.26281863 0.069645405 0.45182037 0 0.7062556 0.14619994 0.33108306 0 1 0.22341275 0.2774849 0 0.26608923 0.5473361 0.9293127 0 0.7070644 0.6684654 0.8537893 0 1 0.7220359 0.7765701"/>
   <path class="monochrome-1 multicolor-1:tintColor hierarchical-1:primary SFSymbolsPreviewWireframe" d="M50.3418-28.3691C61.0352-28.3691 62.7441-36.1328 68.5059-36.1328C74.4141-36.1328 75.3906-28.3691 87.6465-28.3691L87.8418-28.3691C89.502-28.3691 90.8691-29.7363 90.8691-31.4453C90.8691-33.1543 89.502-34.5215 87.8418-34.5215L87.6465-34.5215C83.6426-34.5215 81.3965-36.1328 78.5156-38.1836C76.0254-39.9902 72.8516-42.2852 68.5059-42.2852C63.9648-42.2852 60.7422-39.8438 58.252-37.9883C55.6152-35.9863 53.6133-34.5215 50.3418-34.5215C47.0215-34.5215 45.0195-35.9863 42.3828-37.9883C39.8926-39.8438 36.6699-42.2852 32.1777-42.2852C27.7832-42.2852 24.6094-39.9902 22.1191-38.1836C19.2383-36.1328 16.9922-34.5215 13.0371-34.5215L12.8418-34.5215C11.1328-34.5215 9.76562-33.1543 9.76562-31.4453C9.76562-29.7363 11.1328-28.3691 12.8418-28.3691L13.0371-28.3691C25.293-28.3691 26.2695-36.1328 32.1777-36.1328C37.9395-36.1328 39.5996-28.3691 50.3418-28.3691Z" data-clipstroke-keyframes="0 8 0 0.49955297 0.0003374815 0 0.26534075 0.071335435 0.45175552 0 0.70453936 0.14765 0.33169746 0 1 0.22476447 0.27654386 0 0.70729935 0.66849303 0.85385823 0 0.26937136 0.5480163 0.9285836 0 1 0.72193444 0.7766752"/>
   <path class="monochrome-2 multicolor-2:tintColor hierarchical-2:primary SFSymbolsPreviewWireframe" d="M50.3418-51.7578C61.0352-51.7578 62.7441-59.5215 68.5059-59.5215C74.4141-59.5215 75.3906-51.7578 87.6465-51.7578L87.8418-51.7578C89.502-51.7578 90.8691-53.125 90.8691-54.7852C90.8691-56.4941 89.502-57.8613 87.8418-57.8613L87.6465-57.8613C83.6426-57.8613 81.3965-59.4727 78.5156-61.5234C76.0254-63.3301 72.8516-65.625 68.5059-65.625C63.9648-65.625 60.7422-63.1836 58.252-61.3281C55.6152-59.3262 53.6133-57.8613 50.3418-57.8613C47.0215-57.8613 45.0195-59.3262 42.3828-61.3281C39.8926-63.1836 36.6699-65.625 32.1777-65.625C27.7832-65.625 24.6094-63.3301 22.1191-61.5234C19.2383-59.4727 16.9922-57.8613 13.0371-57.8613L12.8418-57.8613C11.1328-57.8613 9.76562-56.4941 9.76562-54.7852C9.76562-53.125 11.1328-51.7578 12.8418-51.7578L13.0371-51.7578C25.293-51.7578 26.2695-59.5215 32.1777-59.5215C37.9395-59.5215 39.5996-51.7578 50.3418-51.7578Z" data-clipstroke-keyframes="0 8 0 0.49955252 0.00033762216 0 0.26063207 0.069452465 0.45193 0 0.70453936 0.14771874 0.331619 0 1 0.22486901 0.2764398 0 0.26508203 0.5478413 0.9302717 0 0.710179 0.6681529 0.85208076 0 1 0.72203755 0.7765714"/>
  </g>
  <g id="Ultralight-S" transform="matrix(1 0 0 1 511.369 696)">
   <path class="monochrome-0 multicolor-0:tintColor hierarchical-0:primary SFSymbolsPreviewWireframe" d="M48.3438-8.2988C57.5386-8.2988 59.0659-16.0625 66.5078-16.0625C74.0962-16.0625 75.1636-8.2988 85.6485-8.2988L85.8438-8.2988C86.4595-8.2988 86.9185-8.75779 86.9185-9.37694C86.9185-9.94726 86.4595-10.4517 85.8438-10.4517L85.6485-10.4517C81.0088-10.4517 78.3086-12.4751 75.4278-14.4805C72.9375-16.2871 70.2632-18.2153 66.5078-18.2153C62.648-18.2153 59.9702-16.186 57.48-14.3306C54.8433-12.3286 52.2964-10.4517 48.3438-10.4517C44.3877-10.4517 41.8408-12.3286 39.2041-14.3306C36.7139-16.186 34.0362-18.2153 30.1797-18.2153C26.4209-18.2153 23.792-16.2871 21.3018-14.4805C18.4209-12.4751 15.6753-10.4517 11.0391-10.4517L10.8438-10.4517C10.27-10.4517 9.76562-9.94726 9.76562-9.37694C9.76562-8.75779 10.27-8.2988 10.8438-8.2988L11.0391-8.2988C21.524-8.2988 22.5913-16.0625 30.1797-16.0625C37.6216-16.0625 39.1455-8.2988 48.3438-8.2988Z" data-clipstroke-keyframes="0 8 0 0.49950314 0.00031137466 0 0.26316476 0.06717634 0.44091845 0 0.7204669 0.16826057 0.32406807 0 1 0.23909664 0.26165247 0 0.2617871 0.5580814 0.9336605 0 0.7214806 0.67602897 0.8317387 0 1 0.73842573 0.7609024"/>
   <path class="monochrome-1 multicolor-1:tintColor hierarchical-1:primary SFSymbolsPreviewWireframe" d="M48.3438-30.3218C57.5386-30.3218 59.0659-38.0854 66.5078-38.0854C74.0962-38.0854 75.1636-30.3218 85.6485-30.3218L85.8438-30.3218C86.4595-30.3218 86.9185-30.8262 86.9185-31.3999C86.9185-31.9736 86.4595-32.478 85.8438-32.478L85.6485-32.478C81.0088-32.478 78.3086-34.4981 75.4278-36.5034C72.9375-38.3101 70.2632-40.2417 66.5078-40.2417C62.648-40.2417 59.9702-38.209 57.48-36.3535C54.8433-34.3516 52.2964-32.478 48.3438-32.478C44.3877-32.478 41.8408-34.3516 39.2041-36.3535C36.7139-38.209 34.0362-40.2417 30.1797-40.2417C26.4209-40.2417 23.792-38.3101 21.3018-36.5034C18.4209-34.4981 15.6753-32.478 11.0391-32.478L10.8438-32.478C10.27-32.478 9.76562-31.9736 9.76562-31.3999C9.76562-30.8262 10.27-30.3218 10.8438-30.3218L11.0391-30.3218C21.524-30.3218 22.5913-38.0854 30.1797-38.0854C37.6216-38.0854 39.1455-30.3218 48.3438-30.3218Z" data-clipstroke-keyframes="0 8 0 0.49950314 0.00031149387 0 0.26192844 0.06739211 0.44092202 0 0.70625967 0.16614604 0.32660472 0 1 0.24093294 0.26047087 0 0.721497 0.6760509 0.8317256 0 0.266262 0.5591731 0.9326018 0 1 0.7384448 0.7608837"/>
   <path class="monochrome-2 multicolor-2:tintColor hierarchical-2:primary SFSymbolsPreviewWireframe" d="M48.3438-52.3481C57.5386-52.3481 59.0659-60.1118 66.5078-60.1118C74.0962-60.1118 75.1636-52.3481 85.6485-52.3481L85.8438-52.3481C86.4595-52.3481 86.9185-52.8525 86.9185-53.4229C86.9185-54.042 86.4595-54.501 85.8438-54.501L85.6485-54.501C81.0088-54.501 78.3086-56.5664 75.4278-58.5718C72.9375-60.3784 70.2632-62.2647 66.5078-62.2647C62.648-62.2647 59.9702-60.2774 57.48-58.4219C54.8433-56.4199 52.2964-54.501 48.3438-54.501C44.3877-54.501 41.8408-56.4199 39.2041-58.4219C36.7139-60.2774 34.0362-62.2647 30.1797-62.2647C26.4209-62.2647 23.792-60.3784 21.3018-58.5718C18.4209-56.5664 15.6753-54.501 11.0391-54.501L10.8438-54.501C10.27-54.501 9.76562-54.042 9.76562-53.4229C9.76562-52.8525 10.27-52.3481 10.8438-52.3481L11.0391-52.3481C21.524-52.3481 22.5913-60.1118 30.1797-60.1118C37.6216-60.1118 39.1455-52.3481 48.3438-52.3481Z" data-clipstroke-keyframes="0 8 0 0.49950367 0.00031143683 0 0.2621574 0.06738737 0.4408182 0 0.70559955 0.1659223 0.3267251 0 1 0.24091598 0.260492 0 0.2664916 0.55927795 0.9326066 0 0.71053874 0.67313397 0.834077 0 1 0.73842376 0.76090056"/>
  </g>
 </g>
</svg>
